<mxfile host="app.diagrams.net" modified="2023-08-31T01:51:49.646Z" agent="Mozilla/5.0 (Windows NT 10.0; Win64; x64) AppleWebKit/537.36 (KHTML, like Gecko) Chrome/116.0.0.0 Safari/537.36 Edg/116.0.1938.62" version="21.7.0" etag="2rdx_AFpjz7K4Tf4L-2h" type="github">
  <diagram name="페이지-1" id="XKi_f7elmKGPbEuUmNqf">
    <mxGraphModel>
      <root>
        <mxCell id="0" />
        <mxCell id="1" parent="0" />
      </root>
    </mxGraphModel>
  </diagram>
</mxfile>
